<svg xmlns="http://www.w3.org/2000/svg" viewBox="0 0 200 220" width="200" height="220">
  <ellipse cx="100" cy="200" rx="40" ry="6" fill="#E0E0E0"/>

  <g>
    <path d="M52,45 L130,45 L155,70 L155,175 Q155,182 148,182 L52,182 Q45,182 45,175 L45,52 Q45,45 52,45 Z" fill="#4CAF50"/>
    
    <path d="M130,45 L155,70 L130,70 Z" fill="#388E3C"/>
  </g>

  <circle cx="84" cy="100" r="15" fill="#FFFFFF"/>
  <circle cx="116" cy="100" r="15" fill="#FFFFFF"/>
  
  <circle cx="86" cy="102" r="7" fill="#212121"/>
  <circle cx="118" cy="102" r="7" fill="#212121"/>
  
  <circle cx="82" cy="97" r="3" fill="#FFFFFF"/>
  <circle cx="114" cy="97" r="3" fill="#FFFFFF"/>

  <g fill="#FFFFFF" opacity="0.4">
    <rect x="65" y="130" width="70" height="4" rx="2"/>
    <rect x="65" y="142" width="70" height="4" rx="2"/>
    <rect x="65" y="154" width="45" height="4" rx="2"/>
  </g>
</svg>
